<?xml version="1.0" encoding="utf-8"?>
<!-- Generator: Adobe Illustrator 25.4.1, SVG Export Plug-In . SVG Version: 6.00 Build 0)  -->
<svg version="1.1" id="Layer_1" xmlns="http://www.w3.org/2000/svg" xmlns:xlink="http://www.w3.org/1999/xlink" x="0px" y="0px"
	 viewBox="0 0 792 612" style="enable-background:new 0 0 792 612;" xml:space="preserve">
<style type="text/css">
	.st0{fill:#FF5200;}
	.st1{fill:#98908C;}
</style>
<g>
	<g>
		<polygon class="st0" points="340.63,317.57 374.21,317.57 374.21,313.79 384.63,313.79 384.63,257.19 		"/>
		<polygon class="st0" points="384.63,253.36 384.63,201.44 335.26,201.44 		"/>
		<polygon class="st0" points="329.04,201.44 318.4,201.44 318.4,317.57 318.48,317.57 371.44,245.81 		"/>
	</g>
	<path class="st1" d="M462.4,201.44v34.57h-3.82c-8.85-28.53-12.6-33.73-19.74-34.57h-35.47v51.93h13.54
		c8.68,0,12.85-5.38,16.32-23.96h3.82v51.74h-3.82c-3.47-18.58-7.64-23.96-16.32-23.96h-13.54v56.6h15.97v3.77h55.43V201.44H462.4z"
		/>
</g>
</svg>
