<?xml version="1.0" encoding="utf-8"?>
<!-- Generator: Adobe Illustrator 25.4.1, SVG Export Plug-In . SVG Version: 6.00 Build 0)  -->
<svg version="1.1" id="Layer_1" xmlns="http://www.w3.org/2000/svg" xmlns:xlink="http://www.w3.org/1999/xlink" x="0px" y="0px"
	 viewBox="0 0 792 612" style="enable-background:new 0 0 792 612;" xml:space="preserve">
<style type="text/css">
	.st0{fill:#FF5200;}
	.st1{fill:#98908C;}
</style>
<g>
	<g>
		<polygon class="st0" points="340.63,317.57 374.21,317.57 374.21,313.79 384.63,313.79 384.63,257.19 		"/>
		<polygon class="st0" points="384.63,253.36 384.63,201.44 335.26,201.44 		"/>
		<polygon class="st0" points="329.04,201.44 318.4,201.44 318.4,317.57 318.48,317.57 371.44,245.81 		"/>
	</g>
	<path class="st1" d="M462.4,201.44v34.57h-3.82c-8.85-28.53-12.6-33.73-19.74-34.57h-35.47v51.93h13.54
		c8.68,0,12.85-5.38,16.32-23.96h3.82v51.74h-3.82c-3.47-18.58-7.64-23.96-16.32-23.96h-13.54v56.6h15.97v3.77h55.43V201.44H462.4z"
		/>
</g>
<g>
	<path class="st1" d="M321.11,346.58v4.97c0,0.33,0.05,0.57,0.16,0.72c0.11,0.14,0.31,0.26,0.62,0.34v0.39h-3.49v-0.39
		c0.31-0.08,0.52-0.19,0.62-0.33c0.11-0.14,0.16-0.38,0.16-0.72v-13.82c0-0.34-0.05-0.59-0.16-0.73c-0.11-0.14-0.31-0.25-0.62-0.32
		v-0.39h3.49v0.39c-0.31,0.08-0.52,0.19-0.62,0.33c-0.11,0.14-0.16,0.38-0.16,0.72v6.94l9.02-7.05c0.32-0.24,0.48-0.44,0.48-0.6
		c0-0.18-0.15-0.29-0.46-0.34v-0.39h4.41v0.39c-0.49,0.03-0.97,0.23-1.44,0.6l-6.79,5.26l7.47,9.46c0.18,0.23,0.35,0.38,0.5,0.46
		c0.15,0.08,0.39,0.12,0.71,0.14v0.39h-4.08v-0.39c0.35-0.08,0.53-0.2,0.53-0.36c0-0.1-0.18-0.38-0.54-0.84l-6.05-7.73
		L321.11,346.58z"/>
	<path class="st1" d="M345.11,335.99c2.95,0,5.32,0.77,7.12,2.31c1.01,0.86,1.77,1.91,2.28,3.15c0.42,1.02,0.62,2.12,0.62,3.29
		c0,1.59-0.45,3.08-1.36,4.47c-1,1.53-2.38,2.64-4.15,3.32c-1.32,0.51-2.82,0.76-4.49,0.76c-2.93,0-5.29-0.77-7.09-2.31
		c-1-0.86-1.76-1.91-2.28-3.15c-0.42-1.01-0.62-2.08-0.62-3.19c0-1.66,0.45-3.18,1.35-4.58c0.98-1.51,2.37-2.61,4.16-3.3
		C341.91,336.27,343.39,336.02,345.11,335.99z M345.11,337.67c-2.5,0-4.49,0.7-5.95,2.11c-1.34,1.29-2.01,2.91-2.01,4.86
		c0,1.96,0.67,3.58,2.01,4.87c1.45,1.4,3.44,2.11,5.97,2.11c2.54,0,4.54-0.7,6-2.11c1.33-1.29,1.99-2.88,1.99-4.77
		c0-2.05-0.66-3.7-1.99-4.96c-0.8-0.75-1.66-1.28-2.57-1.58C347.55,337.85,346.4,337.68,345.11,337.67z"/>
	<path class="st1" d="M371.49,345.2h-11.44v6.35c0,0.34,0.05,0.58,0.15,0.72c0.1,0.14,0.31,0.25,0.63,0.33v0.39h-3.49v-0.39
		c0.32-0.08,0.53-0.19,0.63-0.33c0.1-0.14,0.15-0.38,0.15-0.72v-13.82c0-0.34-0.05-0.59-0.16-0.73c-0.11-0.14-0.31-0.25-0.62-0.32
		v-0.39h3.49v0.39c-0.31,0.08-0.52,0.19-0.62,0.33c-0.11,0.14-0.16,0.38-0.16,0.72v5.87h11.44v-5.87c0-0.34-0.05-0.59-0.16-0.73
		c-0.11-0.14-0.31-0.25-0.62-0.32v-0.39h3.49v0.39c-0.31,0.08-0.52,0.19-0.62,0.33c-0.11,0.14-0.16,0.38-0.16,0.72v13.82
		c0,0.33,0.05,0.57,0.16,0.72c0.11,0.14,0.31,0.26,0.62,0.34v0.39h-3.49v-0.39c0.31-0.08,0.52-0.19,0.62-0.33
		c0.11-0.14,0.16-0.38,0.16-0.72V345.2z"/>
	<path class="st1" d="M379.87,351.4h10.67c0.34,0,0.59-0.05,0.73-0.16c0.14-0.11,0.25-0.31,0.32-0.62h0.39v3.16h-0.39
		c-0.07-0.31-0.18-0.52-0.32-0.62s-0.39-0.16-0.73-0.16h-13.38v-0.39c0.32-0.08,0.53-0.19,0.63-0.33c0.1-0.14,0.15-0.38,0.15-0.72
		v-13.82c0-0.34-0.05-0.58-0.16-0.72c-0.11-0.14-0.31-0.25-0.62-0.33v-0.39h3.49v0.39c-0.31,0.08-0.52,0.19-0.62,0.33
		c-0.11,0.14-0.16,0.38-0.16,0.72V351.4z"/>
	<path class="st1" d="M404.53,352.99l-7.03-14.05v12.6c0,0.33,0.05,0.57,0.16,0.72c0.11,0.14,0.31,0.26,0.62,0.34v0.39h-3.3v-0.39
		c0.31-0.08,0.52-0.19,0.62-0.33c0.11-0.14,0.16-0.38,0.16-0.72v-13.82c0-0.34-0.05-0.59-0.16-0.73c-0.11-0.14-0.31-0.25-0.62-0.32
		v-0.39h4.32v0.39c-0.4,0.14-0.6,0.31-0.6,0.51c0,0.1,0.13,0.41,0.4,0.94l5.57,11.01l5.59-11.11c0.2-0.39,0.29-0.67,0.29-0.83
		c0-0.21-0.2-0.39-0.6-0.53v-0.39h4.37v0.39c-0.31,0.08-0.52,0.19-0.62,0.33c-0.11,0.14-0.16,0.38-0.16,0.72v13.82
		c0,0.33,0.05,0.57,0.16,0.72c0.11,0.14,0.31,0.26,0.62,0.34v0.39h-3.49v-0.39c0.32-0.08,0.53-0.19,0.63-0.33
		c0.1-0.14,0.15-0.38,0.15-0.72v-12.6L404.53,352.99z"/>
	<path class="st1" d="M430.94,348.31H422l-1.47,3.17c-0.14,0.3-0.21,0.51-0.21,0.64c0,0.24,0.24,0.41,0.72,0.49v0.39h-3.73v-0.39
		c0.33-0.06,0.59-0.18,0.76-0.37c0.18-0.19,0.41-0.6,0.69-1.22l6.12-13.21c0.15-0.32,0.22-0.53,0.22-0.65c0-0.21-0.2-0.37-0.6-0.48
		v-0.39h4.06v0.39c-0.4,0.13-0.6,0.3-0.6,0.51c0,0.09,0.07,0.29,0.22,0.61l5.86,12.73c0.43,0.94,0.72,1.49,0.86,1.65
		c0.14,0.16,0.44,0.3,0.91,0.42v0.39h-3.97v-0.39c0.47-0.07,0.71-0.25,0.71-0.54c0-0.13-0.09-0.38-0.27-0.76L430.94,348.31z
		 M430.23,346.71l-3.76-8.26l-3.76,8.26H430.23z"/>
	<path class="st1" d="M441.52,345.48v6.07c0,0.33,0.05,0.57,0.16,0.71c0.11,0.14,0.31,0.25,0.62,0.34v0.39h-3.49v-0.39
		c0.31-0.08,0.52-0.19,0.62-0.33c0.11-0.14,0.16-0.38,0.16-0.72v-13.82c0-0.34-0.05-0.59-0.16-0.73c-0.11-0.14-0.31-0.25-0.62-0.32
		v-0.39h9.17c1.26,0,2.25,0.07,2.98,0.2c0.73,0.14,1.36,0.37,1.9,0.7c0.55,0.34,1,0.81,1.35,1.41c0.39,0.68,0.59,1.44,0.59,2.29
		c0,1.27-0.42,2.31-1.27,3.12c-0.84,0.8-2,1.26-3.48,1.38l4.25,6.6c0.25,0.41,0.62,0.61,1.1,0.61v0.39h-3.87v-0.39
		c0.4-0.07,0.6-0.18,0.6-0.34c0-0.08-0.14-0.35-0.43-0.79l-3.8-5.99H441.52z M441.52,343.89h6.77c0.92,0,1.62-0.04,2.09-0.12
		c0.47-0.08,0.88-0.22,1.24-0.42c0.84-0.49,1.26-1.31,1.26-2.46c0-1.16-0.43-1.98-1.3-2.47c-0.38-0.21-0.81-0.35-1.28-0.43
		c-0.47-0.07-1.2-0.11-2.18-0.11h-6.6V343.89z"/>
	<path class="st1" d="M461.3,346.58v4.97c0,0.33,0.05,0.57,0.16,0.72c0.11,0.14,0.31,0.26,0.62,0.34v0.39h-3.49v-0.39
		c0.31-0.08,0.52-0.19,0.62-0.33c0.11-0.14,0.16-0.38,0.16-0.72v-13.82c0-0.34-0.05-0.59-0.16-0.73c-0.11-0.14-0.31-0.25-0.62-0.32
		v-0.39h3.49v0.39c-0.31,0.08-0.52,0.19-0.62,0.33c-0.11,0.14-0.16,0.38-0.16,0.72v6.94l9.02-7.05c0.32-0.24,0.48-0.44,0.48-0.6
		c0-0.18-0.16-0.29-0.46-0.34v-0.39h4.41v0.39c-0.49,0.03-0.97,0.23-1.44,0.6l-6.79,5.26l7.47,9.46c0.18,0.23,0.35,0.38,0.5,0.46
		c0.16,0.08,0.39,0.12,0.71,0.14v0.39h-4.08v-0.39c0.35-0.08,0.53-0.2,0.53-0.36c0-0.1-0.18-0.38-0.54-0.84l-6.05-7.73L461.3,346.58
		z"/>
</g>
<g>
	<path d="M344.75,370.09c-1.18-1.47-2.3-2.72-3.36-3.75c-1.06-1.03-2.1-1.8-3.1-2.28c-0.49-0.23-1.37-0.42-2.65-0.58
		c-1.28-0.16-2.77-0.24-4.46-0.24c-0.29,0-0.62,0.01-0.99,0.02c-0.37,0.01-0.73,0.03-1.08,0.04c-0.34,0.01-0.67,0.03-0.97,0.04
		c-0.3,0.02-0.52,0.02-0.67,0.02c-0.03,0.17-0.06,0.35-0.11,0.52c-0.04,0.17-0.08,0.37-0.11,0.6c-0.03,0.23-0.06,0.52-0.09,0.88
		c-0.03,0.36-0.06,0.8-0.09,1.31c-0.03,1.01-0.05,2.11-0.06,3.3c-0.01,1.19-0.02,2.32-0.02,3.38c0,1.06,0,1.98,0,2.76
		c0,0.75,0,1.19,0,1.34c0.09,0,0.34,0,0.78,0c0.46,0,0.97-0.01,1.53-0.04c0.56-0.03,1.14-0.06,1.75-0.11
		c0.6-0.04,1.11-0.11,1.51-0.19c1.03-0.23,1.85-0.53,2.46-0.9c0.6-0.37,1.08-0.82,1.42-1.34c0.34-0.52,0.59-1.08,0.73-1.7
		c0.14-0.62,0.27-1.29,0.39-2h0.52v13.88h-0.52c-0.23-0.92-0.56-1.89-0.99-2.91c-0.43-1.02-0.95-1.8-1.55-2.35
		c-0.55-0.49-1.13-0.85-1.75-1.1c-0.62-0.24-1.34-0.39-2.18-0.45c-0.43-0.03-0.8-0.05-1.12-0.06c-0.32-0.01-0.62-0.02-0.91-0.02
		c-0.29,0-0.59,0-0.91,0c-0.32,0-0.7,0-1.16,0c0,0.92,0,1.84,0,2.76c0,0.89,0,1.75,0,2.59c0,0.8,0.01,1.55,0.02,2.22
		c0.01,0.68,0.02,1.26,0.02,1.75c0.03,0.92,0.08,1.79,0.15,2.61c0.07,0.82,0.24,1.43,0.5,1.83c0.26,0.4,0.7,0.71,1.31,0.93
		c0.62,0.22,1.52,0.35,2.69,0.41v0.43h-13.79v-0.43c0.72-0.11,1.39-0.3,2-0.56c0.62-0.26,1.13-0.62,1.53-1.08
		c0.14-0.17,0.26-0.42,0.34-0.75c0.09-0.33,0.17-0.71,0.24-1.14c0.07-0.43,0.12-0.88,0.15-1.36c0.03-0.47,0.04-0.94,0.04-1.4
		c0-0.4,0.01-0.95,0.02-1.64c0.01-0.69,0.03-1.44,0.04-2.26c0.01-0.82,0.02-1.66,0.02-2.52c0-0.89,0-1.72,0-2.5v-8.41
		c0-0.52-0.01-1.05-0.02-1.59c-0.01-0.55-0.04-1.06-0.09-1.55c-0.04-0.49-0.12-0.93-0.22-1.31c-0.1-0.39-0.24-0.67-0.41-0.84
		c-0.43-0.46-0.89-0.75-1.38-0.88c-0.49-0.13-1.12-0.25-1.9-0.37v-0.43h23.97l2.93,7.24L344.75,370.09z"/>
	<path d="M373.04,393.67h-27.67v-0.43c0.72-0.11,1.43-0.3,2.13-0.56c0.7-0.26,1.26-0.62,1.66-1.08c0.14-0.17,0.27-0.42,0.37-0.75
		c0.1-0.33,0.18-0.71,0.24-1.14c0.06-0.43,0.11-0.88,0.15-1.36c0.04-0.47,0.06-0.94,0.06-1.4c0-0.4,0.01-0.95,0.02-1.64
		c0.01-0.69,0.03-1.44,0.04-2.26c0.01-0.82,0.02-1.66,0.02-2.52c0-0.89,0-1.72,0-2.5v-8.36c0-0.52,0-1.02,0-1.51
		c0-0.52-0.02-1-0.06-1.44c-0.04-0.45-0.11-0.84-0.19-1.19c-0.09-0.34-0.22-0.62-0.39-0.82c-0.4-0.49-0.94-0.86-1.62-1.12
		c-0.68-0.26-1.39-0.43-2.13-0.52v-0.43h13.75v0.43c-0.37,0.06-0.82,0.14-1.34,0.26c-0.52,0.12-1.01,0.3-1.47,0.56
		c-0.46,0.26-0.86,0.63-1.19,1.1c-0.33,0.47-0.51,1.1-0.54,1.88c-0.03,1.01-0.05,1.93-0.06,2.76c-0.01,0.83-0.03,1.65-0.04,2.46
		c-0.01,0.81-0.02,1.64-0.02,2.5c0,0.86,0,1.83,0,2.89c0,0.98,0,1.87,0,2.67c0,0.78,0,1.54,0,2.28c0,0.75,0.01,1.52,0.02,2.31
		c0.01,0.79,0.02,1.67,0.02,2.65c0.03,0.92,0.06,1.8,0.11,2.63c0.04,0.83,0.19,1.45,0.45,1.85c0.11,0.14,0.34,0.29,0.69,0.43
		c0.34,0.14,0.76,0.27,1.25,0.37c0.49,0.1,1.02,0.19,1.59,0.26c0.57,0.07,1.15,0.11,1.72,0.11c0.23,0,0.6-0.01,1.1-0.02
		c0.5-0.01,1.06-0.04,1.66-0.09c0.6-0.04,1.22-0.11,1.85-0.19c0.63-0.09,1.19-0.2,1.68-0.35c1.15-0.32,2.1-0.73,2.87-1.25
		c0.76-0.52,1.42-1.11,1.96-1.79c0.55-0.67,1.01-1.41,1.38-2.2c0.37-0.79,0.73-1.62,1.08-2.48l0.43,0.13L373.04,393.67z"/>
	<path d="M394.56,393.67v-0.43c0.09,0,0.29-0.03,0.62-0.09c0.33-0.06,0.67-0.16,1.03-0.3c0.36-0.14,0.68-0.35,0.95-0.6
		c0.27-0.26,0.41-0.59,0.41-0.99c0-0.26-0.08-0.68-0.24-1.27c-0.16-0.59-0.38-1.31-0.67-2.16c-0.29-0.85-0.62-1.79-0.99-2.82
		c-0.37-1.03-0.78-2.11-1.21-3.23h-11.47c-0.43,1.09-0.85,2.13-1.25,3.13c-0.4,0.99-0.8,1.99-1.21,3c-0.6,1.55-0.91,2.64-0.91,3.28
		c0,0.37,0.11,0.68,0.35,0.93c0.23,0.24,0.52,0.45,0.88,0.6c0.36,0.16,0.75,0.27,1.16,0.34c0.42,0.07,0.81,0.14,1.19,0.19v0.43
		h-9.18v-0.47c0.75-0.09,1.39-0.29,1.92-0.6c0.53-0.32,0.84-0.53,0.93-0.65c0.2-0.2,0.53-0.68,0.99-1.42
		c0.46-0.75,1.02-1.85,1.68-3.32c0.6-1.35,1.28-2.89,2.03-4.61c0.75-1.72,1.52-3.5,2.31-5.32c0.79-1.82,1.57-3.66,2.35-5.52
		c0.78-1.85,1.51-3.58,2.2-5.19l-0.43-0.95c0.52-0.23,0.98-0.5,1.4-0.82c0.42-0.32,0.78-0.65,1.1-0.99c0.32-0.35,0.58-0.68,0.8-0.99
		c0.22-0.32,0.38-0.57,0.5-0.78h0.35c0.89,2.39,1.74,4.65,2.54,6.79c0.8,2.14,1.57,4.2,2.31,6.19c0.73,1.98,1.44,3.9,2.13,5.75
		c0.69,1.85,1.38,3.69,2.07,5.5c0.32,0.89,0.61,1.63,0.88,2.22c0.27,0.59,0.58,1.26,0.93,2c0.06,0.12,0.19,0.32,0.39,0.6
		c0.2,0.29,0.47,0.58,0.8,0.88c0.33,0.3,0.74,0.57,1.23,0.8c0.49,0.23,1.06,0.36,1.72,0.39v0.52H394.56z M388.91,367.55
		c-0.17,0.37-0.42,0.96-0.75,1.77c-0.33,0.8-0.74,1.78-1.23,2.93c-0.49,1.15-1.03,2.45-1.62,3.9c-0.59,1.45-1.23,3.02-1.92,4.72
		h10.73c-0.49-1.29-0.98-2.59-1.49-3.88c-0.5-1.29-0.99-2.54-1.47-3.73c-0.47-1.19-0.91-2.28-1.29-3.28
		C389.5,368.99,389.17,368.18,388.91,367.55z"/>
	<path d="M435.58,372.63c-0.37-1.38-0.93-2.67-1.68-3.88c-0.75-1.21-1.63-2.26-2.65-3.15c-1.02-0.89-2.17-1.59-3.45-2.11
		c-1.28-0.52-2.64-0.78-4.07-0.78c-1.98,0-3.75,0.45-5.3,1.34c-1.55,0.89-2.85,2.07-3.9,3.53c-1.05,1.47-1.85,3.13-2.41,4.98
		s-0.84,3.76-0.84,5.71c0,2.07,0.29,4.01,0.88,5.82c0.59,1.81,1.43,3.38,2.52,4.72c1.09,1.34,2.41,2.39,3.97,3.17
		c1.55,0.78,3.28,1.16,5.17,1.16c1.49,0,2.89-0.27,4.2-0.82c1.31-0.55,2.47-1.26,3.49-2.16c1.02-0.89,1.88-1.92,2.59-3.08
		c0.7-1.16,1.19-2.36,1.44-3.6h0.52l-0.13,9.48h-0.52c-0.34-0.49-0.7-0.93-1.08-1.34s-0.63-0.6-0.78-0.6
		c-0.06,0-0.32,0.15-0.78,0.45c-0.46,0.3-1.12,0.63-1.98,0.99c-0.86,0.36-1.91,0.68-3.15,0.95c-1.24,0.27-2.66,0.41-4.27,0.41
		c-2.67,0-5.09-0.38-7.24-1.14c-2.16-0.76-3.99-1.84-5.5-3.23c-1.51-1.39-2.67-3.06-3.47-5c-0.8-1.94-1.21-4.07-1.21-6.4
		c0-0.52,0.04-1.11,0.11-1.77c0.07-0.66,0.2-1.36,0.39-2.11c0.19-0.75,0.45-1.53,0.78-2.35c0.33-0.82,0.75-1.64,1.27-2.48
		c0.6-0.98,1.35-1.91,2.24-2.8c0.89-0.89,1.94-1.67,3.15-2.35c1.21-0.67,2.57-1.21,4.09-1.62c1.52-0.4,3.23-0.6,5.13-0.6
		c1.72,0,3.23,0.16,4.53,0.47c1.29,0.32,2.37,0.66,3.23,1.03c0.86,0.37,1.52,0.72,1.98,1.03c0.46,0.32,0.72,0.47,0.78,0.47
		c0.06,0,0.16-0.06,0.32-0.19c0.16-0.13,0.33-0.29,0.52-0.47c0.19-0.19,0.38-0.4,0.58-0.65c0.2-0.24,0.39-0.5,0.56-0.75h0.47v9.66
		L435.58,372.63z"/>
	<path d="M461.62,393.67v-0.43c1.06-0.09,1.95-0.28,2.67-0.58c0.72-0.3,1.19-0.64,1.42-1.01c0.06-0.09,0.11-0.26,0.15-0.52
		c0.04-0.26,0.08-0.56,0.11-0.91c0.03-0.35,0.05-0.7,0.06-1.08c0.01-0.37,0.02-0.73,0.02-1.08c0.03-0.95,0.04-1.92,0.04-2.93
		c0-1.03,0-2,0-2.89c0-0.92,0-1.72,0-2.41c0-0.72,0-1.22,0-1.51h-17.03v9.27c0,0.83,0.01,1.64,0.04,2.41
		c0.03,0.78,0.16,1.32,0.39,1.64c0.35,0.49,0.83,0.86,1.47,1.12c0.63,0.26,1.25,0.42,1.85,0.47v0.43h-12.72v-0.43
		c0.72-0.11,1.41-0.31,2.07-0.58c0.66-0.27,1.16-0.61,1.51-1.01c0.11-0.14,0.21-0.38,0.28-0.71c0.07-0.33,0.13-0.71,0.17-1.14
		c0.04-0.43,0.08-0.9,0.11-1.4c0.03-0.5,0.04-0.98,0.04-1.44c0-0.4,0.01-0.95,0.02-1.64c0.01-0.69,0.03-1.44,0.04-2.26
		c0.01-0.82,0.02-1.66,0.02-2.52c0-0.89,0-1.72,0-2.5v-8.41c0-0.52,0-1.03,0-1.55c0-0.52-0.02-1-0.06-1.44
		c-0.04-0.45-0.11-0.85-0.19-1.21c-0.09-0.36-0.22-0.64-0.39-0.84c-0.4-0.49-0.9-0.84-1.49-1.06c-0.59-0.22-1.26-0.37-2-0.45v-0.43
		h12.85v0.43c-0.4,0.06-0.83,0.14-1.29,0.26c-0.46,0.12-0.88,0.3-1.25,0.54c-0.37,0.24-0.69,0.58-0.95,1.01
		c-0.26,0.43-0.4,0.98-0.43,1.64c-0.03,1.01-0.05,2.09-0.06,3.25c-0.01,1.16-0.02,2.28-0.02,3.34c0,1.03,0,1.95,0,2.76
		c0,0.78,0,1.31,0,1.59h17.03c0-0.92,0-1.75,0-2.5c0-0.78,0-1.52,0-2.24c0-0.72,0-1.45,0-2.2c0-0.75-0.01-1.59-0.04-2.54
		c-0.03-0.55-0.06-1.11-0.11-1.7c-0.04-0.59-0.18-1.07-0.41-1.44c-0.52-0.78-1.11-1.26-1.77-1.44c-0.66-0.19-1.32-0.29-1.98-0.32
		v-0.43h12.97v0.43c-0.69,0.09-1.37,0.28-2.03,0.58c-0.66,0.3-1.15,0.74-1.47,1.31c-0.11,0.2-0.2,0.48-0.26,0.84
		c-0.06,0.36-0.1,0.76-0.13,1.21c-0.03,0.45-0.04,0.9-0.04,1.36c0,0.46,0,0.91,0,1.34v7.37c0,1.06,0,2.03,0,2.89
		c0,0.83,0,1.67,0,2.5c0,0.8,0.01,1.64,0.02,2.5c0.01,0.86,0.02,1.81,0.02,2.84c0,0.83,0.02,1.6,0.06,2.31
		c0.04,0.7,0.15,1.19,0.32,1.44c0.37,0.58,0.88,0.98,1.51,1.21c0.63,0.23,1.32,0.39,2.07,0.47v0.43H461.62z"/>
</g>
<g>
	<path d="M320.09,408.94l-0.96,2.25h-0.97l3.65-8.29l3.56,8.29h-0.98l-0.93-2.25H320.09z M321.8,404.95l-1.35,3.17h2.68
		L321.8,404.95z"/>
	<path d="M337.99,411.19h-0.88v-7.92h1.14c1.5,0,2.9,0.4,2.9,2.18c0,1.22-0.77,2.08-1.98,2.18l2.52,3.55h-1.08l-2.39-3.48h-0.22
		V411.19z M337.99,406.94h0.27c1,0,2.01-0.19,2.01-1.42c0-1.3-0.96-1.43-2.02-1.43h-0.26V406.94z"/>
	<path d="M359.7,405c-0.63-0.65-1.5-1.05-2.41-1.05c-1.76,0-3.19,1.53-3.19,3.28c0,1.74,1.44,3.28,3.21,3.28
		c0.89,0,1.76-0.42,2.39-1.05v1.09c-0.68,0.49-1.52,0.78-2.36,0.78c-2.24,0-4.13-1.82-4.13-4.06c0-2.27,1.86-4.13,4.13-4.13
		c0.88,0,1.66,0.25,2.36,0.78V405z"/>
	<path d="M377.04,406.48v-3.21h0.88v7.92h-0.88v-3.88h-4.05v3.88h-0.88v-7.92h0.88v3.21H377.04z"/>
	<path d="M391.33,411.19h-0.88v-7.92h0.88V411.19z"/>
	<path d="M405.9,411.19h-0.88v-7.1h-1.91v-0.82h4.72v0.82h-1.93V411.19z"/>
	<path d="M419.61,403.27h4.1v0.82h-3.22v2.35h3.13v0.82h-3.13v3.11h3.22v0.82h-4.1V403.27z"/>
	<path d="M442.12,405c-0.63-0.65-1.5-1.05-2.42-1.05c-1.76,0-3.19,1.53-3.19,3.28c0,1.74,1.44,3.28,3.21,3.28
		c0.89,0,1.76-0.42,2.39-1.05v1.09c-0.68,0.49-1.52,0.78-2.36,0.78c-2.24,0-4.13-1.82-4.13-4.06c0-2.27,1.86-4.13,4.13-4.13
		c0.88,0,1.66,0.25,2.36,0.78V405z"/>
	<path d="M456.58,411.19h-0.88v-7.1h-1.91v-0.82h4.72v0.82h-1.93V411.19z"/>
	<path d="M473.87,404.81c-0.31-0.55-0.69-0.86-1.36-0.86c-0.7,0-1.31,0.5-1.31,1.23c0,0.68,0.7,1,1.24,1.24l0.52,0.23
		c1.03,0.45,1.9,0.97,1.9,2.23c0,1.39-1.11,2.45-2.49,2.45c-1.27,0-2.21-0.82-2.47-2.05l0.86-0.24c0.12,0.81,0.73,1.47,1.59,1.47
		c0.85,0,1.63-0.65,1.63-1.54c0-0.92-0.72-1.24-1.46-1.57l-0.48-0.21c-0.92-0.42-1.72-0.89-1.72-2.03c0-1.23,1.04-2.02,2.22-2.02
		c0.88,0,1.63,0.45,2.05,1.23L473.87,404.81z"/>
</g>
</svg>
